# xmcd CD database file
#
# Track frame offsets:
#	183
#	32670
#	56258
#	74483
#	95520
#	122570
#	144408
#	160645
#	188845
#	207433
#	224183
#	243795
#	263733
#	290645
#	309533
#
# Disc length: 4438 seconds
#
# Revision: 5
# Processed by: cddbd v1.5PL3 Copyright (c) Steve Scherf et al.
# Submitted via: CDex 1.50
#
DISCID=e011540f
DTITLE=Chris de Burgh (1990) - High On Emotion - Live From Dublin
DYEAR=1990
DGENRE=Pop
TTITLE0=Last Night
TTITLE1=Sailing Away
TTITLE2=The Revolution
TTITLE3=I'm Not Scared Anymore
TTITLE4=Spanish Train
TTITLE5=Borderline
TTITLE6=The Risen Lord
TTITLE7=The Last Time I Cried
TTITLE8=The Lady In Red
TTITLE9=A Spaceman Came Travelling
TTITLE10=Patricia The Stripper
TTITLE11=Missing You
TTITLE12=Say Goodbye To It All
TTITLE13=Don't Pay The Ferryman
TTITLE14=High On Emotion
EXTD=YEAR: 1990
EXTT0=Published by Rondor Music (London) Ltd.
EXTT1=Published by Rondor Music (London) Ltd.
EXTT2=Published by Rondor Music (London) Ltd. and Crusty Music Ltd.
EXTT3=Published by Rondor Music (London) Ltd.
EXTT4=Published by Chrysalis Music Ltd.
EXTT5=Published by Rondor Music (London) Ltd.
EXTT6=Published by Rondor Music (London) Ltd.
EXTT7=Published by Rondor Music (London) Ltd.
EXTT8=Published by Rondor Music (London) Ltd.
EXTT9=Published by Chrysalis Music Ltd.
EXTT10=Published by Chrysalis Music Ltd.
EXTT11=Published by Rondor Music (London) Ltd.
EXTT12=Published by Rondor Music (London) Ltd.
EXTT13=Published by Rondor Music (London) Ltd.
EXTT14=Published by Rondor Music (London) Ltd.
PLAYORDER=
